# xmcd CD database file
#
# Track frame offsets:
#	150
#	19651
#	37188
#	51889
#	68753
#	81204
#
# Disc length: 1314 seconds
#
# Revision: 0
# Processed by: cddbd v1.5.2PL0 Copyright (c) Steve Scherf et al.
# Submitted via: CDex 1.51
#
DISCID=49052006
DTITLE=Honky Tonk Brothers - Demo
DYEAR=1900
DGENRE=Country
TTITLE0=Mercury Blues (Live from Berlin Festival)
TTITLE1=Road-Live Boogie
TTITLE2=Thank God For the Radio
TTITLE3=Pusta droga
TTITLE4=The Ballad of Sally Anne
TTITLE5=Jak ja nie lubiê swojej roboty
EXTD=
EXTT0=
EXTT1=
EXTT2=
EXTT3=
EXTT4=
EXTT5=
PLAYORDER=
